<?xml version="1.0" standalone="no"?>
<!DOCTYPE svg PUBLIC "-//W3C//DTD SVG 20010904//EN"
 "http://www.w3.org/TR/2001/REC-SVG-20010904/DTD/svg10.dtd">
<svg version="1.0" xmlns="http://www.w3.org/2000/svg"
 width="225.000000pt" height="225.000000pt" viewBox="0 0 225.000000 225.000000"
 preserveAspectRatio="xMidYMid meet">
<metadata>
Created by potrace 1.14, written by Peter Selinger 2001-2017
</metadata>
<g transform="translate(0.000000,225.000000) scale(0.100000,-0.100000)"
fill="#000000" stroke="none">
<path d="M1065 1779 c-148 -25 -276 -113 -337 -233 -40 -77 -57 -241 -29 -284
3 -5 34 -21 69 -35 74 -29 76 -24 31 64 -30 60 -30 61 -7 54 40 -12 92 -60
115 -106 13 -24 30 -81 40 -126 10 -49 20 -77 25 -70 12 19 9 78 -7 132 -23
74 -21 174 5 232 20 45 84 123 102 123 4 0 8 -56 8 -125 0 -134 -19 -213 -60
-250 -15 -13 -20 -30 -19 -64 l1 -46 14 45 c19 63 65 114 130 145 64 30 169
55 234 55 38 -1 42 -2 25 -12 -11 -6 -59 -48 -106 -94 -81 -79 -185 -144 -229
-144 -34 0 -60 -30 -60 -69 0 -37 2 -39 38 -45 162 -26 329 28 433 142 63 69
87 115 105 205 24 112 1 225 -50 248 -20 10 -30 8 -59 -10 -44 -27 -111 -28
-154 -1 -40 24 -41 33 -8 58 36 29 86 35 137 17 81 -28 86 -19 28 47 -99 113
-267 172 -415 147z"/>
<path d="M1345 1560 c3 -5 8 -10 11 -10 2 0 4 5 4 10 0 6 -5 10 -11 10 -5 0
-7 -4 -4 -10z"/>
<path d="M910 1119 c0 -2 7 -22 15 -44 14 -40 14 -40 15 -9 0 17 -7 37 -15 44
-8 7 -15 11 -15 9z"/>
<path d="M800 1072 c0 -13 110 -105 117 -98 10 9 -9 64 -26 80 -22 20 -91 34
-91 18z"/>
<path d="M468 762 c-29 -32 -48 -80 -54 -138 -5 -42 -4 -55 4 -50 7 4 12 23
12 42 l0 34 55 0 55 0 0 -40 c0 -23 5 -40 11 -40 17 0 2 96 -22 147 -27 57
-42 68 -61 45z m41 -36 c30 -48 27 -56 -24 -56 -29 0 -45 4 -45 13 0 13 37 77
44 77 2 0 14 -15 25 -34z"/>
<path d="M615 758 c-83 -73 -21 -198 91 -184 37 5 42 3 54 -22 7 -15 15 -22
17 -15 2 7 -1 21 -7 33 -9 17 -7 25 9 47 33 40 28 88 -13 129 -29 29 -41 34
-79 34 -33 0 -53 -6 -72 -22z m134 -14 c24 -20 31 -34 31 -63 0 -20 -6 -46
-14 -56 -12 -17 -17 -18 -40 -7 -32 14 -46 15 -46 3 0 -5 12 -12 28 -16 25 -7
25 -8 7 -15 -27 -11 -65 -2 -92 22 -62 57 -19 156 69 158 14 0 40 -12 57 -26z"/>
<path d="M830 695 c0 -72 3 -88 20 -105 11 -11 29 -20 40 -20 11 0 29 9 40 20
17 17 20 33 20 105 0 50 -4 85 -10 85 -6 0 -10 -37 -10 -90 0 -79 -2 -91 -20
-100 -14 -8 -26 -8 -40 0 -18 9 -20 21 -20 100 0 53 -4 90 -10 90 -6 0 -10
-35 -10 -85z"/>
<path d="M1033 768 c-29 -35 -52 -105 -51 -153 1 -50 1 -50 5 -7 l4 42 54 0
54 0 9 -42 c10 -41 10 -42 11 -10 2 53 -19 117 -48 152 -22 27 -29 30 -38 18z
m47 -59 l20 -39 -50 0 c-27 0 -50 2 -50 5 0 18 42 85 51 80 5 -4 18 -24 29
-46z"/>
<path d="M1152 673 l2 -108 3 90 c2 49 8 94 12 98 13 13 51 -29 58 -65 l6 -32
11 38 c6 21 21 45 34 54 l22 14 0 -96 c0 -62 4 -95 10 -91 11 7 14 205 3 205
-17 0 -73 -40 -73 -52 0 -7 -8 -3 -18 8 -15 20 -52 44 -66 44 -3 0 -5 -48 -4
-107z"/>
<path d="M1362 694 c-2 -77 1 -93 16 -107 23 -21 52 -22 78 -3 16 12 20 29 22
105 3 62 0 91 -7 91 -7 0 -11 -30 -11 -84 0 -64 -4 -88 -16 -100 -19 -20 -25
-20 -50 -2 -15 12 -20 31 -25 103 l-6 88 -1 -91z"/>
<path d="M1522 673 l2 -108 3 93 c2 50 8 92 12 92 30 0 81 -100 81 -158 0 -13
4 -21 8 -18 13 7 15 193 2 201 -6 4 -10 -13 -10 -47 -1 -44 -2 -50 -12 -33
-15 28 -50 65 -70 76 -17 9 -18 2 -16 -98z"/>
<path d="M1680 675 l0 -105 28 6 c97 23 122 128 43 181 -65 44 -71 37 -71 -82z
m75 60 c34 -33 34 -87 0 -120 -13 -14 -33 -25 -45 -25 -19 0 -20 6 -20 85 0
79 1 85 20 85 12 0 32 -11 45 -25z"/>
<path d="M1830 674 c0 -67 4 -103 10 -99 6 3 10 50 10 106 0 59 -4 99 -10 99
-6 0 -10 -42 -10 -106z"/>
</g>
</svg>
